# xmcd
#
# Track frame offsets:
#	150
#	13002
#	26265
#	38659
#	51301
#	61185
#	74610
#	87460
#	99355
#	113915
#	125781
#	139165
#	149971
#	161643
#	175642
#
# Disc length: 2554 seconds
#
# Revision: 1
# Processed by: cddbd v1.5.2PL0 Copyright (c) Steve Scherf et al.
# Submitted via: audiograbber 1.83.01
#
DISCID=d809f80f
DTITLE=Howlin' Wolf - Blues From Hell [CD2]
DYEAR=2011
DGENRE=Blues
TTITLE0=Forty Four
TTITLE1=Moanin' At Midnight
TTITLE2=Mr Airplane Man
TTITLE3=Nature
TTITLE4=The Natchez Burnin'
TTITLE5=My Last Affair
TTITLE6=I Want Your Picture
TTITLE7=Don't Mess With My Baby
TTITLE8=I'll Be Around
TTITLE9=Oh Red!
TTITLE10=Tell Me
TTITLE11=Come To Me Baby
TTITLE12=Sitting On Top Of The World
TTITLE13=You Can't Be Beat
TTITLE14=Change My Way
EXTD=
EXTT0=
EXTT1=
EXTT2=
EXTT3=
EXTT4=
EXTT5=
EXTT6=
EXTT7=
EXTT8=
EXTT9=
EXTT10=
EXTT11=
EXTT12=
EXTT13=
EXTT14=
PLAYORDER=
